<?xml version="1.0" encoding="UTF-8" standalone="no"?>
<svg
   width="80"
   height="20"
   version="1.1"
   id="svg359"
   sodipodi:docname="client-maker.svg"
   inkscape:version="1.1 (c68e22c387, 2021-05-23)"
   xmlns:inkscape="http://www.inkscape.org/namespaces/inkscape"
   xmlns:sodipodi="http://sodipodi.sourceforge.net/DTD/sodipodi-0.dtd"
   xmlns="http://www.w3.org/2000/svg"
   xmlns:svg="http://www.w3.org/2000/svg">
  <defs
     id="defs363" />
  <sodipodi:namedview
     id="namedview361"
     pagecolor="#ffffff"
     bordercolor="#666666"
     borderopacity="1.0"
     inkscape:pageshadow="2"
     inkscape:pageopacity="0.0"
     inkscape:pagecheckerboard="0"
     showgrid="false"
     width="82px"
     inkscape:zoom="8"
     inkscape:cx="70.0625"
     inkscape:cy="17.0625"
     inkscape:window-width="1920"
     inkscape:window-height="1009"
     inkscape:window-x="1072"
     inkscape:window-y="92"
     inkscape:window-maximized="1"
     inkscape:current-layer="svg359" />
  <path
     d="M 34.417831,14.285328 V 9.8037005 c 0,-0.4246016 0.137521,-0.7701107 0.413539,-1.0373598 0.275042,-0.2672493 0.639815,-0.4012902 1.095293,-0.4012902 0.47596,0 0.848536,0.1365385 1.119677,0.4079505 0.270166,0.271412 0.404761,0.6518883 0.404761,1.1405963 v 4.3708987 h 2.182785 V 9.8037005 c 0,-0.2830677 0.0634,-0.5328333 0.189213,-0.7492969 0.125818,-0.2172961 0.300401,-0.3863041 0.525702,-0.5078568 0.224326,-0.12072 0.489615,-0.1814963 0.793917,-0.1814963 0.476936,0 0.849511,0.1365385 1.119677,0.4079505 0.270166,0.271412 0.405736,0.6518883 0.405736,1.1405963 v 4.3708987 h 2.182785 V 9.4207266 c 0,-0.8084081 -0.253585,-1.4627941 -0.758805,-1.9631579 -0.50522,-0.4995312 -1.253297,-0.7492968 -2.243255,-0.7492968 -0.577394,0 -1.103096,0.1082317 -1.57613,0.3246954 -0.47401,0.2164635 -0.851462,0.5195123 -1.131381,0.9074817 l 0.06047,-0.079925 -0.03609,-0.058279 a 2.5670637,2.1912771 0 0 0 -0.67005,-0.6393996 l -0.14142,-0.085753 C 37.918283,6.830657 37.35942,6.7074394 36.680592,6.7074394 c -0.593975,0 -1.130405,0.1115619 -1.609291,0.3355184 -0.318933,0.1498594 -0.594951,0.3338534 -0.827079,0.5544796 l -0.09948,0.099906 V 6.8856055 H 32.21847 v 7.3988905 h 2.199365 z m 14.927397,0.20564 c 0.749052,0 1.368385,-0.110729 1.858,-0.33302 0.380378,-0.171506 0.741249,-0.427932 1.081639,-0.766781 l 0.01365,-0.01499 v 0.909147 h 1.909692 V 9.763738 c 0,-0.3380161 -0.01561,-0.6435627 -0.04779,-0.9183049 A 2.5875456,2.2087606 0 0 0 53.855145,8.0237042 2.5456065,2.1729609 0 0 0 52.507242,6.9830141 C 51.913267,6.7815364 51.233463,6.6807976 50.468806,6.6807976 c -1.043601,0 -1.867753,0.191487 -2.471482,0.5752936 a 3.3492768,2.8589838 0 0 0 -1.236716,1.4935984 l 1.97504,0.5344984 c 0.138496,-0.3380161 0.382328,-0.5727958 0.729545,-0.7060042 0.348192,-0.1323757 0.68273,-0.1981473 1.003613,-0.1981473 0.577394,0 0.989958,0.1024039 1.235741,0.3080442 0.172633,0.1440315 0.284796,0.3446766 0.336488,0.6027678 l 0.01463,0.096576 -0.348192,0.044125 -0.35697,0.04579 -0.344291,0.043292 c -0.561789,0.070766 -1.064083,0.1448641 -1.508833,0.2222915 -0.443774,0.078261 -0.826103,0.1665103 -1.146986,0.267249 -0.466207,0.146529 -0.836831,0.328026 -1.111874,0.544489 -0.276018,0.217295 -0.474985,0.467062 -0.597876,0.750129 a 3.1405566,2.6808177 0 0 0 -0.185312,0.939119 c 0,0.410448 0.111187,0.786762 0.333562,1.126442 0.222375,0.340515 0.548134,0.611927 0.979229,0.815902 0.431095,0.203142 0.955822,0.304713 1.577106,0.304715 z m 0.465231,-1.466123 c -0.251634,0 -0.468157,-0.03247 -0.649568,-0.09574 a 0.92948772,0.79342213 0 0 1 -0.421342,-0.278076 0.86804205,0.74097134 0 0 1 -0.149225,-0.434591 c 0,-0.123219 0.03121,-0.235613 0.09266,-0.33552 0.06145,-0.100738 0.158003,-0.193152 0.288697,-0.278072 0.13167,-0.08409 0.304303,-0.16318 0.517899,-0.236444 0.187263,-0.05828 0.403786,-0.11406 0.650544,-0.164013 0.245783,-0.04995 0.569592,-0.106567 0.970452,-0.168176 0.250659,-0.0383 0.550085,-0.08325 0.897302,-0.133207 l 0.02926,-0.0033 v 0.0058 a 15.341912,13.096044 0 0 1 -0.01365,0.277239 l -0.0098,0.154855 c -0.01951,0.267249 -0.08388,0.502029 -0.197017,0.702674 -0.05852,0.1049 -0.169707,0.23478 -0.332586,0.390467 a 2.2627613,1.9315209 0 0 1 -0.658347,0.41461 c -0.275042,0.120722 -0.614457,0.181497 -1.014341,0.181497 z m 8.699927,1.260483 v -3.56249 l 3.001085,3.56249 h 2.841131 l -3.338548,-3.699861 3.130803,-3.699029 h -2.696782 l -2.937689,3.562491 V 4.4204188 h -2.21497 l -0.01658,9.8649092 z M 73.109098,11.106644 C 73.199804,10.211652 73.092518,9.4332148 72.78724,8.7705034 72.482938,8.1077919 72.011854,7.5941073 71.374965,7.2286169 70.739051,6.8639591 69.965616,6.6807976 69.055634,6.6807976 c -0.855362,0 -1.613192,0.1656779 -2.270564,0.4970336 a 4.0885756,3.4900582 0 0 0 -1.549796,1.3936922 c -0.374526,0.598605 -0.561789,1.3021114 -0.561789,2.1105196 0,0.739306 0.19214,1.39619 0.574468,1.968985 a 4.1392926,3.533351 0 0 0 1.589785,1.349567 c 0.675903,0.327193 1.458116,0.490373 2.34664,0.490373 0.834881,0 1.603439,-0.187323 2.307626,-0.561972 a 3.8398669,3.2777575 0 0 0 1.54492,-1.576021 l -2.18376,-0.533666 c -0.159954,0.301383 -0.393057,0.532001 -0.697359,0.691018 -0.305278,0.160683 -0.672002,0.240608 -1.100171,0.240608 -0.678828,0 -1.193801,-0.188989 -1.544919,-0.566136 -0.241882,-0.260588 -0.40086,-0.596107 -0.475961,-1.007388 l -0.0117,-0.07077 z M 70.89998,9.722943 h -3.81841 l 0.0156,-0.063274 c 0.0751,-0.2689144 0.186288,-0.4995313 0.336489,-0.6910183 l 0.07803,-0.091581 c 0.350143,-0.3863041 0.897302,-0.5794562 1.640502,-0.5794562 0.636889,0 1.095293,0.1656778 1.376188,0.4970335 0.172633,0.2031427 0.292598,0.487043 0.358921,0.8508682 z m 6.21284,4.562385 v -3.782284 c 0,-0.283067 0.04583,-0.5378284 0.136546,-0.7642826 a 1.9701629,1.6817552 0 0 1 0.401835,-0.5886142 c 0.176535,-0.1665105 0.393058,-0.3005513 0.650544,-0.4012902 0.256512,-0.1049016 0.544233,-0.1673429 0.86219,-0.1881567 0.318933,-0.020813 0.597876,8.325e-4 0.838783,0.064939 V 6.8856055 a 4.0700443,3.4742398 0 0 0 -0.786115,-0.016651 c -0.263339,0.015818 -0.516924,0.054116 -0.762707,0.1165573 a 2.7982164,2.3885918 0 0 0 -0.682729,0.256426 C 77.498075,7.3784763 77.268873,7.5524796 77.08161,7.7622828 A 3.1210501,2.6641666 0 0 0 76.87484,8.0253693 L 76.8407,8.0778203 V 6.886438 h -1.926273 v 7.39889 h 2.199365 z M 10.713455,0.0128881 c 5.331144,0 9.752307,3.3277107 10.566706,7.6827905 A 8.6940751,7.4213692 0 0 1 9.0124839,18.166687 C 3.9115177,17.471506 0.01215583,13.698379 0.01215583,9.1468169 c 0,-5.044433 4.79081177,-9.1339288 10.69934917,-9.1339288 z m 3.99787,5.1376788 A 8.6940751,7.4213692 0 0 0 9.0134593,18.166687 10.821266,9.2371657 0 0 0 11.587349,18.251606 7.3569002,6.2799403 0 0 1 14.733758,6.2928284 7.3637275,6.2857682 0 0 1 21.378669,9.8911185 10.7013,9.1347617 0 0 1 11.586374,18.251606 7.3569002,6.2799403 0 0 0 21.378669,9.8911185 10.779327,9.201366 0 0 0 21.281136,7.6956786 8.6726179,7.403053 0 0 0 14.711325,5.1505669 Z"
     fill="#adadad"
     id="path357"
     style="stroke-width:0.901117" />
</svg>
