<?xml version="1.0" encoding="UTF-8" standalone="no"?>
<svg
   width="100"
   height="18"
   version="1.1"
   id="svg145"
   sodipodi:docname="client-databiz.svg"
   inkscape:version="1.1 (c68e22c387, 2021-05-23)"
   xmlns:inkscape="http://www.inkscape.org/namespaces/inkscape"
   xmlns:sodipodi="http://sodipodi.sourceforge.net/DTD/sodipodi-0.dtd"
   xmlns="http://www.w3.org/2000/svg"
   xmlns:svg="http://www.w3.org/2000/svg">
  <defs
     id="defs149" />
  <sodipodi:namedview
     id="namedview147"
     pagecolor="#ffffff"
     bordercolor="#666666"
     borderopacity="1.0"
     inkscape:pageshadow="2"
     inkscape:pageopacity="0.0"
     inkscape:pagecheckerboard="0"
     showgrid="false"
     width="113px"
     inkscape:zoom="4"
     inkscape:cx="44.875"
     inkscape:cy="4.875"
     inkscape:window-width="1920"
     inkscape:window-height="1009"
     inkscape:window-x="1072"
     inkscape:window-y="92"
     inkscape:window-maximized="1"
     inkscape:current-layer="svg145" />
  <path
     d="m 19.892606,17.998881 c 0.740645,0 1.392908,-0.164664 1.955906,-0.494893 a 4.3988009,4.478328 0 0 0 1.39998,-1.28582 v 1.47388 h 2.823823 V 0.0027872 H 23.248492 V 7.3730873 A 4.2847874,4.3622532 0 0 0 21.848512,6.0818677 C 21.285514,5.7561384 20.633251,5.5923739 19.892606,5.5923739 c -0.840519,0 -1.628008,0.1619648 -2.359816,0.484095 -0.733575,0.32213 -1.379652,0.7684331 -1.939114,1.3380094 a 6.1832452,6.2950335 0 0 0 -1.313365,1.9759713 5.9039562,6.0106953 0 0 0 -0.474614,2.4051784 c 0,0.857514 0.158205,1.65924 0.474614,2.406078 0.31641,0.746837 0.753904,1.405495 1.313365,1.975071 a 6.1770584,6.2887349 0 0 0 1.93823,1.338909 c 0.733576,0.32213 1.520181,0.483195 2.3607,0.483195 z m 0.03535,-2.771398 a 3.0226842,3.077332 0 0 1 -1.61475,-0.4598 3.3815175,3.4426527 0 0 1 -1.61475,-2.972055 c 0,-0.637063 0.146715,-1.214737 0.440146,-1.733024 a 3.4469205,3.5092383 0 0 1 1.168415,-1.2444302 2.9864473,3.0404401 0 0 1 1.620937,-0.466099 c 0.59393,0 1.124225,0.1529668 1.590886,0.4598003 0.46666,0.3068335 0.830796,0.7216433 1.093292,1.2444299 0.262496,0.522787 0.393303,1.10226 0.393303,1.739323 0,0.629862 -0.130807,1.205737 -0.393303,1.727625 a 3.1199051,3.1763106 0 0 1 -1.087105,1.24443 c -0.463125,0.305933 -0.996072,0.4598 -1.597073,0.4598 z m 14.465576,2.771398 c 0.701758,0 1.313365,-0.162864 1.833939,-0.489493 a 3.8667379,3.9366456 0 0 0 1.267407,-1.279523 l 0.114896,1.462183 h 2.836198 V 5.8992073 h -2.823824 l 0.127271,1.5098723 A 5.2958841,5.3916297 0 0 0 36.204489,6.0881663 C 35.599068,5.7417415 34.910568,5.568979 34.138988,5.568979 c -0.825494,0 -1.597073,0.1574658 -2.314739,0.4714976 A 6.0259242,6.1348683 0 0 0 29.92668,7.3496925 C 29.378707,7.9075714 28.954471,8.5563305 28.653971,9.29597 a 6.0188536,6.12767 0 0 0 -0.451636,2.370085 6.1293318,6.2401456 0 0 0 1.804773,4.46933 6.3281926,6.4426016 0 0 0 1.97977,1.367704 c 0.747716,0.331128 1.55023,0.495792 2.406657,0.495792 z m 0.08043,-2.771398 A 3.1022285,3.1583144 0 0 1 32.871586,14.77938 3.7359316,3.8034744 0 0 1 31.63865,13.582639 3.5786106,3.6433092 0 0 1 31.060627,11.925199 c -0.05391,-0.660455 0.05038,-1.259726 0.311991,-1.79781 a 3.1747022,3.2320985 0 0 1 1.117151,-1.2912192 2.9166251,2.9693555 0 0 1 1.63773,-0.484095 2.9343016,2.9873515 0 0 1 1.585583,0.4481028 c 0.470195,0.2987352 0.855543,0.6982485 1.156928,1.1967399 0.3005,0.4993925 0.478149,1.0554715 0.532063,1.6691375 0.04684,0.65236 -0.04773,1.24803 -0.282825,1.787014 a 2.9908665,3.044939 0 0 1 -1.035843,1.291219 c -0.456054,0.32213 -0.991652,0.483195 -1.608564,0.483195 z M 47.18161,17.692948 V 8.7758829 h 2.244917 V 5.8992073 H 47.18161 V 2.196511 h -2.823823 v 3.7026963 h -1.712856 v 2.8775755 h 1.712856 v 8.9152652 h 2.823823 z m 9.963368,0.305933 c 0.702641,0 1.313365,-0.162864 1.834822,-0.489493 a 3.8667379,3.9366456 0 0 0 1.266522,-1.279523 l 0.115781,1.462183 h 2.835314 V 5.8992073 h -2.822944 l 0.128155,1.5098723 A 5.2958841,5.3916297 0 0 0 58.956821,6.0881663 C 58.351401,5.7417415 57.662901,5.568979 56.89132,5.568979 c -0.825493,0 -1.597073,0.1574658 -2.31474,0.4714976 A 6.0259242,6.1348683 0 0 0 52.679007,7.3496925 C 52.131035,7.9075714 51.706798,8.5563305 51.406298,9.29597 a 6.0188536,6.12767 0 0 0 -0.450752,2.370085 6.1293318,6.2401456 0 0 0 1.804773,4.46933 6.3281926,6.4426016 0 0 0 1.978886,1.367704 c 0.7486,0.331128 1.55023,0.495792 2.406657,0.495792 z m 0.08131,-2.771398 A 3.1022285,3.1583144 0 0 1 55.623024,14.77938 3.7359316,3.8034744 0 0 1 54.39097,13.582639 3.5786106,3.6433092 0 0 1 53.812064,11.925199 c -0.05303,-0.660455 0.05037,-1.259726 0.312875,-1.79781 a 3.1747022,3.2320985 0 0 1 1.116279,-1.2912192 2.9166251,2.9693555 0 0 1 1.637728,-0.484095 2.9343016,2.9873515 0 0 1 1.585584,0.4481028 c 0.470195,0.2987352 0.856427,0.6982485 1.157812,1.1967399 0.300501,0.4993925 0.477266,1.0554715 0.532063,1.6691375 0.04596,0.65236 -0.04861,1.24803 -0.283708,1.787014 a 2.9908665,3.044939 0 0 1 -1.035844,1.291219 c -0.455171,0.32213 -0.991653,0.483195 -1.608563,0.483195 z m 14.905722,2.771398 c 0.848472,0 1.641264,-0.161965 2.377491,-0.483195 a 6.1584981,6.2698391 0 0 0 3.258665,-3.325678 5.9870359,6.0952769 0 0 0 0.473731,-2.417775 c 0,-1.140053 -0.273986,-2.1802272 -0.821958,-3.1196234 A 6.2106438,6.3229276 0 0 0 75.210378,6.4066971 c -0.92625,-0.5578788 -1.952372,-0.8368183 -3.078366,-0.8368183 -0.724737,0 -1.367279,0.1664639 -1.92674,0.5002915 a 4.5517028,4.6339942 0 0 0 -1.406167,1.302917 V 0.0027872 H 65.975282 V 17.692948 h 2.823823 v -1.498175 a 4.5517028,4.6339942 0 0 0 1.405283,1.302917 c 0.560345,0.333828 1.202003,0.501191 1.92674,0.501191 z m -0.03536,-2.783096 c -0.585977,0 -1.110085,-0.152967 -1.57321,-0.459799 a 3.1199051,3.1763106 0 0 1 -1.08799,-1.24443 3.7005786,3.7674822 0 0 1 -0.393302,-1.739323 c 0,-0.620865 0.130806,-1.193141 0.393302,-1.715928 a 3.1640963,3.2213008 0 0 1 1.087106,-1.2507285 2.7964248,2.846982 0 0 1 1.574978,-0.4651991 c 0.593931,0 1.137483,0.1529668 1.631542,0.4598002 0.493175,0.3068334 0.887361,0.7216435 1.179908,1.2444304 0.29343,0.521886 0.440145,1.098661 0.440145,1.727625 0,0.637061 -0.146715,1.214737 -0.440145,1.733924 a 3.429244,3.4912422 0 0 1 -1.174605,1.243529 3.0359415,3.0908291 0 0 1 -1.636845,0.466099 z M 81.74892,4.1418887 c 0.409212,0 0.754788,-0.1394697 1.036728,-0.4184091 0.281056,-0.2789395 0.422468,-0.6307631 0.422468,-1.0554709 0,-0.4166096 -0.141412,-0.7666335 -0.422468,-1.0491722 A 1.4176565,1.4432867 0 0 0 81.749805,1.1941287 c -0.409212,0 -0.756555,0.1412692 -1.042032,0.4247078 a 1.3814197,1.4063947 0 0 0 -0.427771,1.0491722 c 0,0.4247078 0.142296,0.7765314 0.427771,1.0554709 0.285477,0.2789394 0.63282,0.4184091 1.042032,0.4184091 z m 16.79269,4.4990235 c 0.409213,0 0.754789,-0.1394697 1.036726,-0.4184092 0.281055,-0.2789394 0.422474,-0.6307631 0.422474,-1.0554708 0,-0.4166097 -0.141419,-0.7666337 -0.422474,-1.0491723 A 1.4176565,1.4432867 0 0 0 98.542491,5.693152 c -0.409214,0 -0.756553,0.1412694 -1.042026,0.4247079 a 1.3814197,1.4063947 0 0 0 -0.427778,1.0491723 c 0,0.4247077 0.142295,0.7765314 0.427778,1.0554708 0.285473,0.2789395 0.632812,0.4184092 1.042026,0.4184092 z M 5.8327049,17.390613 c 1.6218204,0 2.9917503,-0.554279 4.1097895,-1.661039 1.1171556,-1.10676 1.6757336,-2.503257 1.6757336,-4.187691 0,-1.6538415 -0.558578,-3.0413403 -1.6766173,-4.1642966 C 8.8244552,6.2546302 7.4545253,5.693152 5.8318211,5.693152 4.2100008,5.693152 2.8330002,6.2546302 1.6999355,7.3775864 0.56687091,8.5005427 3.3859e-4,9.8880415 3.3859e-4,11.541883 c 0,1.684434 0.5656485,3.080032 1.69871321,4.187691 1.1330645,1.10676 2.5100651,1.661039 4.1327693,1.661039 z M 83.149784,17.692048 V 5.8992073 H 80.325961 V 17.692948 h 2.823823 z m 12.726207,0 v -2.877575 h -5.80939 l 5.80939,-6.0376902 V 5.8992073 h -9.883823 v 2.8775755 h 5.820874 l -5.820874,6.0376902 v 2.877575 h 9.882941 z"
     fill="#adadad"
     id="path143"
     style="stroke-width:0.89178" />
</svg>
