<?xml version="1.0" encoding="UTF-8" standalone="no"?>
<svg
   width="85"
   height="18"
   version="1.1"
   id="svg252"
   sodipodi:docname="client-meet.svg"
   inkscape:version="1.1 (c68e22c387, 2021-05-23)"
   xmlns:inkscape="http://www.inkscape.org/namespaces/inkscape"
   xmlns:sodipodi="http://sodipodi.sourceforge.net/DTD/sodipodi-0.dtd"
   xmlns="http://www.w3.org/2000/svg"
   xmlns:svg="http://www.w3.org/2000/svg">
  <defs
     id="defs256" />
  <sodipodi:namedview
     id="namedview254"
     pagecolor="#ffffff"
     bordercolor="#666666"
     borderopacity="1.0"
     inkscape:pageshadow="2"
     inkscape:pageopacity="0.0"
     inkscape:pagecheckerboard="0"
     showgrid="false"
     width="89px"
     inkscape:zoom="4.7416667"
     inkscape:cx="42.917399"
     inkscape:cy="3.4797891"
     inkscape:window-width="1920"
     inkscape:window-height="1009"
     inkscape:window-x="1072"
     inkscape:window-y="92"
     inkscape:window-maximized="1"
     inkscape:current-layer="svg252" />
  <path
     d="m 4.7583662,8.9984268 a 4.758332,4.4990291 0 1 1 0,8.9980582 4.758332,4.4990291 0 0 1 0,-8.9980582 z M 14.27503,3.6855548e-4 a 4.758332,4.4990291 0 1 1 0,8.99805824452 4.758332,4.4990291 0 0 1 0,-8.99805824452 z M 29.991801,16.502807 V 8.9660338 c 0.215077,-0.2636431 0.475833,-0.4616004 0.784173,-0.5938718 0.30834,-0.1313717 0.655698,-0.1979573 1.042075,-0.1979573 0.558628,0 1.006863,0.1844602 1.343753,0.5524808 0.335938,0.3671207 0.504383,0.8503165 0.504383,1.4468875 v 6.329234 h 3.481196 V 9.7155721 a 6.7273298,6.3607274 0 0 0 -0.04283,-0.7081472 c 0.229351,-0.2636431 0.501528,-0.467899 0.81653,-0.6145674 0.315001,-0.1457685 0.666166,-0.217753 1.053494,-0.217753 0.558628,0 1.005912,0.1835604 1.342802,0.551581 0.33689,0.3671207 0.504383,0.8503165 0.504383,1.4468875 v 6.329234 h 3.482147 V 9.7155721 c 0,-1.2912214 -0.412071,-2.3529923 -1.236214,-3.1853127 -0.823192,-0.8332202 -1.880493,-1.2498303 -3.16905,-1.2498303 -0.745154,0 -1.433209,0.1322715 -2.063212,0.3959146 A 4.7278787,4.4702353 0 0 0 36.202371,6.801101 4.1073922,3.8835619 0 0 0 34.752031,5.6862416 4.2863055,4.0527254 0 0 0 32.828714,5.281329 c -0.530079,0 -1.035413,0.075584 -1.515053,0.2285506 -0.480592,0.152967 -0.920262,0.3815177 -1.321865,0.6865519 V 5.4891841 H 26.510605 V 16.502807 Z m 22.048207,0.207855 c 0.945005,0 1.793892,-0.131371 2.545708,-0.395914 0.751817,-0.262743 1.486503,-0.686552 2.203108,-1.268726 l -2.299226,-1.978673 c -0.272177,0.263643 -0.601453,0.467899 -0.988782,0.614567 a 3.4545491,3.2662952 0 0 1 -1.289508,0.218653 c -0.658553,0 -1.231456,-0.163765 -1.718709,-0.489494 a 3.0643658,2.8973748 0 0 1 -1.075383,-1.259729 h 8.102488 v -0.83322 A 7.365898,6.9644971 0 0 0 57.08955,8.9138451 C 56.803099,8.1715053 56.405302,7.5362424 55.897112,7.0089561 A 5.5910402,5.2863592 0 0 0 54.081333,5.7591258 5.4340152,5.1378913 0 0 0 51.782107,5.3011247 c -0.830805,0 -1.608316,0.1457685 -2.331583,0.4373056 A 5.7404518,5.4276287 0 0 0 47.570031,6.9459697 6.0497434,5.7200656 0 0 0 46.31288,8.7680765 6.107795,5.7749538 0 0 0 45.85037,11.005894 c 0,0.791829 0.161783,1.537768 0.483447,2.238716 a 6.0697284,5.7389616 0 0 0 1.311396,1.821207 5.9650451,5.6399829 0 0 0 1.966143,1.20844 6.3923433,6.0439957 0 0 0 2.428652,0.436405 z M 54.10227,9.7983542 h -4.748816 c 0.1713,-0.5551802 0.466317,-0.9852874 0.881243,-1.2903216 0.414927,-0.3059339 0.909793,-0.4589009 1.482697,-0.4589009 0.558628,0 1.049688,0.1601654 1.472227,0.4795965 0.42254,0.3194311 0.727074,0.7423398 0.9136,1.269626 z m 10.723377,6.9123078 c 0.945956,0 1.793891,-0.131371 2.546659,-0.395914 0.751816,-0.262743 1.486503,-0.686552 2.202156,-1.268726 l -2.299226,-1.978673 c -0.272177,0.263643 -0.601453,0.467899 -0.988781,0.614567 a 3.4545491,3.2662952 0 0 1 -1.288557,0.218653 c -0.659505,0 -1.232408,-0.163765 -1.719661,-0.489494 a 3.0643658,2.8973748 0 0 1 -1.074431,-1.259729 h 8.101536 v -0.83322 A 7.365898,6.9644971 0 0 0 69.875189,8.9138451 C 69.589689,8.1715053 69.191892,7.5362424 68.682751,7.0089561 A 5.5910402,5.2863592 0 0 0 66.866971,5.7591258 5.4340152,5.1378913 0 0 0 64.567745,5.3011247 c -0.830805,0 -1.608316,0.1457685 -2.331583,0.4373056 a 5.7404518,5.4276287 0 0 0 -1.880492,1.2075394 6.0497434,5.7200656 0 0 0 -1.2562,1.8221068 6.107795,5.7749538 0 0 0 -0.46251,2.2378175 c 0,0.791829 0.161783,1.537768 0.483447,2.238716 a 6.0697284,5.7389616 0 0 0 1.310444,1.821207 5.9650451,5.6399829 0 0 0 1.966143,1.20844 6.3923433,6.0439957 0 0 0 2.428653,0.436405 z m 2.063212,-6.9123078 h -4.748815 c 0.1713,-0.5551802 0.465365,-0.9852874 0.880291,-1.2903216 0.415879,-0.3059339 0.909794,-0.4589009 1.482697,-0.4589009 0.558628,0 1.049688,0.1601654 1.472228,0.4795965 0.42254,0.3194311 0.727073,0.7423398 0.913599,1.269626 z m 10.787139,6.8502218 c 0.329277,0 0.737542,-0.03149 1.224795,-0.09358 a 7.0137814,6.6315689 0 0 0 1.203858,-0.239348 v -2.728212 c -0.286452,0.08278 -0.551967,0.14217 -0.795593,0.176362 a 5.1922919,4.9093406 0 0 1 -0.773705,0.05219 c -0.558628,0 -0.948811,-0.100778 -1.17055,-0.301435 C 77.142113,13.312996 77.03172,12.96927 77.03172,12.483375 V 8.2992777 h 3.180469 V 5.4891841 H 77.03172 V 1.9286524 l -3.481196,0.7288427 v 2.831689 h -2.299226 v 2.8100936 h 2.299226 v 4.8517533 c 0,1.151751 0.347359,2.022763 1.042075,2.613036 0.694716,0.589373 1.722516,0.884509 3.083399,0.884509 z M 83.425967,4.7486439 c 0.439669,0 0.811771,-0.1403697 1.115353,-0.4193095 0.30263,-0.2789398 0.454896,-0.6298641 0.454896,-1.0554722 0,-0.4166101 -0.152266,-0.7666346 -0.454896,-1.0491737 A 1.5264729,1.4432885 0 0 0 83.425967,1.7999802 c -0.440622,0 -0.814627,0.1412695 -1.122015,0.4247083 a 1.4874546,1.4063965 0 0 0 -0.460607,1.0491737 c 0,0.4247083 0.153219,0.7765324 0.460607,1.0554722 0.307388,0.2789398 0.681393,0.4193095 1.122015,0.4193095 z"
     fill="#adadad"
     fill-rule="evenodd"
     id="path250"
     style="stroke-width:0.925373" />
</svg>
