<?xml version="1.0" encoding="UTF-8" standalone="no"?>
<svg
   width="62"
   height="27"
   version="1.1"
   id="svg19"
   sodipodi:docname="client-audiophile.svg"
   inkscape:version="1.1 (c68e22c387, 2021-05-23)"
   xmlns:inkscape="http://www.inkscape.org/namespaces/inkscape"
   xmlns:sodipodi="http://sodipodi.sourceforge.net/DTD/sodipodi-0.dtd"
   xmlns="http://www.w3.org/2000/svg"
   xmlns:svg="http://www.w3.org/2000/svg">
  <defs
     id="defs23" />
  <sodipodi:namedview
     id="namedview21"
     pagecolor="#ffffff"
     bordercolor="#666666"
     borderopacity="1.0"
     inkscape:pageshadow="2"
     inkscape:pageopacity="0.0"
     inkscape:pagecheckerboard="0"
     showgrid="false"
     width="72px"
     inkscape:zoom="8"
     inkscape:cx="41.8125"
     inkscape:cy="18.0625"
     inkscape:window-width="1920"
     inkscape:window-height="1009"
     inkscape:window-x="1072"
     inkscape:window-y="92"
     inkscape:window-maximized="1"
     inkscape:current-layer="svg19" />
  <path
     d="m 5.5044186,13.425574 c 1.2179657,0 2.3059811,-0.353502 3.1646725,-0.967995 l 0.3091628,0.654356 H 11.771762 V 3.8554335 H 9.0793264 L 8.7090104,4.5714649 C 7.8435244,3.9396728 6.7393714,3.5756407 5.5044186,3.5756407 c -3.2079891,0 -5.50038068,2.0405361 -5.50038068,4.9084201 0,2.8769072 2.29324078,4.9422652 5.50038068,4.9422652 z m 0.4824299,-2.823507 c -1.353012,0 -2.3475991,-0.9025588 -2.3475991,-2.1112377 0,-1.201908 0.9860936,-2.1037154 2.3475991,-2.1037154 1.3538615,0 2.3484486,0.9025589 2.3484486,2.1037154 0,1.2086789 -0.9945871,2.1112377 -2.3484486,2.1112377 z m 13.0986525,2.823507 c 3.098423,0 5.162339,-1.687034 5.162339,-4.2773801 V 3.8644596 h -3.613127 v 5.1445903 c 0,0.9672432 -0.583503,1.5524021 -1.549212,1.5524021 -0.96486,0 -1.560253,-0.5753814 -1.560253,-1.5524021 V 3.8644596 H 13.91212 v 5.2837343 c 0,2.5903461 2.074957,4.2773801 5.173381,4.2773801 z m 12.197493,0.0097 c 1.222212,0 2.310229,-0.367042 3.163824,-1.000338 l 0.340589,0.687449 h 2.673748 V 0.52198024 h -3.57151 V 4.2036712 A 4.9092342,4.3473289 0 0 0 31.282994,3.5613501 c -3.21903,0 -5.511422,2.0548267 -5.511422,4.9317357 0,2.8776612 2.293241,4.9422672 5.512272,4.9422672 z m 0.484129,-2.823509 c -1.353862,0 -2.348449,-0.9100805 -2.348449,-2.1180058 0,-1.2094301 0.993738,-2.1187585 2.3476,-2.1187585 1.353862,0 2.348449,0.910081 2.348449,2.1187585 0,1.2086778 -0.994587,2.1180058 -2.348449,2.1180058 z M 43.312317,2.7061748 V -8.4824123e-8 H 39.753546 V 2.7061748 Z m 0.02718,10.4155382 V 3.8644596 h -3.611429 v 9.2572534 h 3.613129 z m 7.542216,0.303861 c 3.409284,0 5.881738,-2.072127 5.881738,-4.9324882 0,-2.8693869 -2.472454,-4.9317357 -5.880889,-4.9317357 -3.420326,0 -5.881738,2.0623488 -5.881738,4.9317357 0,2.8603612 2.461412,4.9324882 5.881738,4.9324882 z m 8.289641,-7.2001691 c 0.393247,0 0.724493,-0.1173324 0.995436,-0.3504942 0.270093,-0.2331608 0.405988,-0.5264927 0.405988,-0.8822514 0,-0.3482376 -0.135895,-0.6408181 -0.405988,-0.8769878 A 1.362355,1.2064213 0 0 0 59.1722,3.7606652 c -0.393248,0 -0.727043,0.118085 -1.001382,0.3550063 a 1.3275317,1.1755839 0 0 0 -0.411085,0.8769878 c 0,0.3550062 0.136746,0.6490906 0.411085,0.8822514 0.274339,0.2331618 0.608134,0.3504942 1.001382,0.3504942 z m -8.289641,4.3360471 c -1.316491,0 -2.261816,-0.8438928 -2.261816,-2.0683662 0,-1.2237205 0.945325,-2.0668618 2.262665,-2.0668618 1.31649,0 2.261815,0.8506633 2.261815,2.0676143 0,1.2237209 -0.944476,2.0676137 -2.261815,2.0676137 z M 17.182963,27.00308 v -3.644837 a 4.9168783,4.354098 0 0 0 2.556541,0.614493 c 3.207988,0 5.500381,-2.057084 5.500381,-4.941514 0,-2.88443 -2.293242,-4.932488 -5.499532,-4.932488 -1.246844,0 -2.356943,0.38058 -3.219031,1.038695 L 16.068614,14.402594 H 13.61145 V 27.00308 Z m 2.07411,-5.853852 c -1.353861,0 -2.348448,-0.902559 -2.348448,-2.118006 0,-1.2162 0.994587,-2.118758 2.348448,-2.118758 1.353013,0 2.3476,0.902558 2.3476,2.118758 0,1.216199 -1.002232,2.118006 -2.3476,2.118006 z m 11.253868,2.510621 v -4.943771 c 0,-1.18837 0.681177,-1.87281 1.775138,-1.87281 0.942778,0 1.367451,0.544543 1.367451,1.612572 v 5.204009 h 3.61228 v -5.57481 c 0,-2.399305 -1.547513,-3.95622 -3.955416,-3.95622 a 4.48456,3.9712624 0 0 0 -2.800303,0.883004 v -3.952458 h -3.612279 v 12.600484 h 3.612279 z m 12.500706,-10.41629 v -2.706176 h -3.55792 v 2.706176 z m 0.02802,10.41629 V 14.401843 H 39.42654 v 9.258006 z m 5.885136,0 V 11.059365 h -3.613129 v 12.600484 h 3.614827 z m 7.358755,0.303862 c 2.63213,0 4.753803,-1.319994 5.491887,-3.432736 h -3.595292 c -0.347384,0.541535 -1.053192,0.867962 -1.896595,0.867962 -1.140675,0 -1.905089,-0.549058 -2.140358,-1.611069 h 7.788525 c 0.04671,-0.285811 0.0739,-0.565604 0.0739,-0.843894 0,-2.715951 -2.340804,-4.84524 -5.722061,-4.84524 -3.292075,0 -5.69743,2.087168 -5.69743,4.924967 0,2.828019 2.424891,4.94001 5.697429,4.94001 z m 2.16329,-5.941851 h -4.240796 c 0.292175,-0.919107 1.024314,-1.424541 2.077506,-1.424541 1.090563,0 1.845634,0.499416 2.16329,1.424541 z"
     fill="#adadad"
     id="path17"
     style="stroke-width:0.799264" />
</svg>
